<?xml version="1.0" standalone="no"?>
<!DOCTYPE svg PUBLIC "-//W3C//DTD SVG 20010904//EN"
 "http://www.w3.org/TR/2001/REC-SVG-20010904/DTD/svg10.dtd">
<svg version="1.0" xmlns="http://www.w3.org/2000/svg"
 width="1500.000000pt" height="1331.000000pt" viewBox="0 0 1500.000000 1331.000000"
 preserveAspectRatio="xMidYMid meet">

<g transform="translate(0.000000,1331.000000) scale(0.100000,-0.100000)"
fill="#000000" stroke="none">
<path d="M285 13272 c-126 -42 -228 -111 -261 -173 -34 -66 -10 -165 66 -265
67 -89 369 -345 834 -707 132 -104 242 -194 244 -201 2 -11 -39 -15 -205 -20
-332 -9 -436 -26 -484 -77 -32 -34 -65 -102 -79 -161 -16 -73 -12 -200 10
-270 24 -76 24 -98 5 -162 -33 -107 -4 -340 57 -466 43 -88 122 -164 228 -220
52 -28 89 -54 97 -70 7 -14 28 -59 47 -100 119 -259 301 -421 580 -515 49 -16
92 -37 97 -45 4 -8 19 -44 33 -80 64 -159 256 -299 461 -335 50 -9 101 -19
115 -23 28 -8 32 -19 85 -207 129 -460 425 -1004 754 -1382 l71 -81 -107 -149
c-58 -81 -161 -221 -227 -311 -67 -90 -132 -179 -145 -198 -33 -47 -34 -108
-3 -152 60 -83 1022 -671 2727 -1665 l680 -397 47 -69 c178 -262 475 -557 731
-727 54 -36 159 -95 232 -130 74 -36 137 -69 139 -73 6 -9 -102 -294 -157
-413 -19 -42 -44 -81 -55 -87 -12 -6 -47 -11 -79 -11 -113 0 -232 -41 -317
-109 -51 -41 -127 -136 -154 -194 -14 -30 -28 -47 -40 -47 -9 0 -57 34 -107
76 -314 263 -665 412 -1115 476 -157 22 -479 16 -634 -11 -474 -83 -888 -307
-1148 -620 -192 -231 -307 -482 -296 -642 4 -54 13 -82 46 -142 135 -251 311
-456 560 -655 475 -379 1120 -656 1902 -817 218 -45 239 -44 403 27 l124 54
44 -55 c90 -112 137 -126 429 -125 345 1 695 51 1011 145 172 51 250 102 303
198 38 70 48 178 44 466 l-3 239 61 21 c129 45 221 120 295 245 90 153 120
323 84 485 -10 46 -14 91 -10 113 7 40 258 546 276 557 15 10 33 -12 53 -67
33 -91 119 -161 259 -213 26 -10 47 -21 47 -25 0 -5 -48 -57 -107 -117 -174
-175 -280 -341 -347 -543 -162 -488 -87 -1032 200 -1461 119 -177 288 -354
468 -488 l99 -74 102 -5 c119 -5 161 5 295 74 457 234 914 899 1205 1756 95
276 197 648 190 687 -4 22 -25 54 -62 92 -60 63 -63 84 -16 94 63 14 99 32
118 61 42 63 89 400 101 731 7 205 0 246 -48 276 -19 13 -291 73 -918 203
-169 36 -181 41 -217 105 -39 70 -119 143 -191 177 -49 23 -70 27 -147 27 -78
0 -98 -4 -152 -29 -34 -15 -70 -37 -79 -47 -17 -19 -44 -26 -44 -11 0 4 90
180 199 392 l199 385 60 35 c33 19 70 44 84 55 13 11 419 451 902 978 483 526
881 957 885 957 17 0 127 -394 180 -645 55 -258 111 -653 111 -778 0 -50 -9
-60 -90 -103 -71 -38 -180 -146 -210 -209 -32 -67 -37 -149 -15 -232 17 -64
17 -66 0 -80 -11 -7 -26 -13 -36 -13 -9 0 -48 -16 -87 -35 -150 -75 -292 -271
-342 -470 -26 -100 -27 -239 -4 -315 47 -156 174 -236 315 -196 79 22 98 21
104 -6 3 -13 9 -43 15 -68 5 -25 15 -128 21 -230 13 -229 28 -310 75 -408 28
-58 56 -96 113 -153 100 -99 184 -142 289 -148 69 -3 78 -1 148 35 70 36 77
37 107 25 83 -33 143 -43 232 -38 103 6 175 28 267 83 36 21 76 37 93 37 17
-1 66 -2 110 -3 96 -2 168 21 247 81 249 187 354 656 257 1157 -34 174 -90
322 -190 498 l-23 41 62 68 c88 96 107 140 107 245 0 71 -4 94 -27 143 -37 78
-116 159 -216 220 -52 32 -84 58 -87 71 -2 12 -7 77 -10 146 -14 306 -59 608
-146 980 -62 267 -95 386 -169 604 -80 235 -106 298 -210 507 -89 177 -91 182
-73 202 10 12 225 249 478 527 253 278 682 753 954 1055 273 303 578 642 680
755 218 242 241 273 241 314 0 61 20 38 -1091 1261 -654 721 -773 845 -830
863 -82 27 -370 76 -854 147 -932 136 -935 136 -973 124 -54 -18 -489 -403
-862 -764 -226 -219 -1597 -1571 -2135 -2107 -243 -241 -446 -438 -452 -438
-6 0 -59 32 -118 71 -194 127 -718 436 -1141 672 -238 132 -289 157 -326 157
-37 0 -968 -419 -1259 -566 -286 -146 -291 -150 -619 -589 -86 -115 -237 -320
-334 -455 -97 -135 -181 -246 -186 -248 -13 -5 -139 168 -215 293 -108 179
-236 465 -252 563 -5 31 -1 38 66 99 132 120 238 274 283 408 32 99 32 264 -1
347 -56 142 -157 245 -313 321 -49 23 -88 45 -88 50 0 4 11 25 24 46 56 88 79
178 95 372 8 83 8 158 1 229 -10 114 -19 152 -57 248 -15 36 -23 72 -19 85 3
12 65 76 138 142 289 261 454 439 512 553 39 76 59 158 51 207 -9 67 -61 160
-109 200 -51 41 -149 88 -231 110 -94 26 -275 31 -374 11 -279 -57 -606 -290
-861 -613 -36 -46 -70 -83 -76 -83 -7 0 -36 18 -65 41 -387 297 -667 477 -972
625 -307 148 -629 234 -877 234 -88 0 -118 -5 -185 -28z m525 -105 c169 -41
215 -57 410 -147 321 -146 742 -416 1013 -649 104 -89 105 -95 47 -211 -22
-44 -37 -80 -33 -79 5 0 52 53 105 117 308 372 525 564 773 686 177 88 322
111 495 82 198 -34 310 -128 310 -259 0 -65 -94 -202 -211 -307 -46 -42 -154
-134 -239 -205 -241 -202 -300 -256 -377 -346 -132 -155 -164 -219 -128 -249
25 -21 60 -3 126 67 143 151 156 158 186 101 25 -50 23 -295 -6 -451 -23 -128
-78 -307 -114 -372 l-23 -40 -219 -6 c-280 -7 -368 -25 -671 -140 -76 -29 -91
-23 -99 38 -12 99 -16 111 -51 169 -76 122 -71 107 -47 156 29 61 35 101 23
174 -34 211 -155 344 -437 480 -73 35 -149 78 -170 97 -120 106 -812 624
-1098 822 -228 157 -249 175 -277 230 -43 82 -23 157 52 195 101 52 121 61
171 75 41 11 89 14 199 11 122 -4 168 -10 290 -39z m10468 -254 c16 -14 1821
-2103 2034 -2353 46 -55 47 -56 32 -87 -9 -17 -241 -266 -516 -554 -895 -936
-1167 -1231 -2158 -2344 -601 -674 -929 -1039 -1880 -2085 -438 -481 -812
-894 -833 -916 l-37 -41 94 -94 c256 -257 396 -620 396 -1029 0 -291 -19 -367
-157 -618 -74 -134 -102 -176 -126 -190 -52 -28 -283 -22 -409 11 -233 61
-458 209 -568 374 -103 154 -99 185 63 509 119 239 173 353 278 586 l48 107
-90 52 c-51 29 -94 48 -99 43 -5 -5 -32 -62 -60 -126 -64 -145 -75 -156 -133
-138 -60 18 -138 59 -242 127 -302 200 -605 502 -810 808 l-67 100 -152 89
c-83 49 -545 316 -1026 593 -933 539 -1324 759 -1780 1003 -157 83 -293 159
-303 168 -21 18 -17 64 7 91 7 9 118 169 247 356 128 187 404 585 614 885 474
679 703 1014 880 1290 208 324 212 330 239 330 14 0 121 -63 253 -148 125 -82
338 -216 473 -299 276 -169 1301 -783 1348 -807 38 -20 94 -21 130 -2 16 8 70
61 121 118 225 247 948 982 2151 2183 1172 1170 1768 1776 1811 1842 9 13 48
60 88 103 77 85 101 96 139 63z m2331 -844 c18 -7 54 -38 86 -76 47 -55 53
-67 44 -84 -6 -11 -16 -22 -22 -24 -7 -2 -310 -9 -674 -15 -562 -9 -666 -9
-695 3 -38 16 -183 181 -173 197 9 15 1391 14 1434 -1z m-12209 -271 c195 -53
393 -160 494 -268 26 -28 62 -81 79 -118 28 -59 31 -78 32 -154 0 -115 -6
-121 -128 -130 -349 -25 -549 -17 -854 37 -289 51 -390 87 -452 162 -66 80
-110 261 -91 372 12 69 32 116 52 125 7 3 184 4 393 2 372 -2 382 -3 475 -28z
m-822 -612 c49 -32 146 -60 312 -90 263 -48 384 -59 620 -60 214 0 230 1 333
28 102 26 110 26 134 11 14 -9 41 -51 61 -93 29 -61 37 -92 40 -149 4 -63 1
-77 -24 -124 -41 -74 -83 -98 -212 -121 -162 -28 -429 -46 -559 -37 -134 9
-288 45 -426 99 -168 66 -246 131 -312 260 -43 85 -65 161 -65 225 0 79 30 95
98 51z m14018 -239 c31 -18 189 -206 189 -225 0 -19 -20 -21 -350 -42 -104 -6
-352 -26 -550 -44 -213 -19 -374 -29 -395 -25 -26 6 -54 28 -113 91 -81 87
-99 121 -76 143 10 9 100 20 294 35 154 12 417 34 585 50 356 32 388 33 416
17z m-11401 -181 c120 -36 199 -79 266 -146 78 -78 103 -134 107 -242 6 -134
-41 -261 -142 -383 -115 -141 -164 -156 -191 -61 -26 90 -24 134 8 162 16 13
36 24 46 24 28 0 71 39 71 64 0 37 -40 64 -132 88 -85 22 -87 22 -189 6 -253
-41 -490 -142 -706 -300 -129 -95 -248 -222 -268 -286 -6 -22 -5 -23 14 -12
25 13 57 6 65 -16 3 -8 9 -50 12 -94 l7 -79 -29 -7 c-39 -10 -113 7 -219 52
-76 32 -101 48 -161 108 -54 54 -76 85 -92 129 -32 85 -37 151 -18 227 63 245
266 466 573 623 250 127 465 178 728 173 138 -3 172 -7 250 -30z m-2108 -297
c116 -30 121 -31 283 -25 91 3 199 12 240 20 63 12 80 12 108 1 46 -20 41 -44
-27 -135 -69 -91 -104 -159 -131 -255 -25 -87 -37 -100 -84 -91 -45 9 -200 87
-281 143 -101 69 -295 286 -295 330 0 25 19 43 46 43 13 0 76 -14 141 -31z
m13577 -35 c3 -9 6 -20 6 -25 0 -5 -74 -87 -164 -182 -90 -95 -176 -186 -190
-204 -52 -63 -109 -80 -341 -103 -115 -11 -367 -39 -560 -60 -422 -48 -432
-49 -441 -15 -5 20 19 54 157 221 108 130 174 201 194 209 16 7 230 38 475 70
245 31 513 67 595 80 188 29 261 31 269 9z m-7904 -222 c141 -78 172 -45 -427
-443 -356 -235 -520 -339 -539 -339 -25 0 -201 95 -232 125 -11 10 -11 18 -3
33 6 11 203 139 438 283 236 145 473 291 527 326 56 35 111 63 125 63 14 0 64
-21 111 -48z m871 -454 c91 -42 104 -55 91 -86 -10 -26 -850 -822 -879 -833
-28 -10 -35 -8 -150 59 -127 73 -127 74 -68 125 212 180 689 600 772 679 66
64 109 98 124 98 12 0 62 -19 110 -42z m5480 -982 c14 -30 11 -35 -101 -154
-66 -69 -94 -92 -125 -101 -22 -6 -143 -20 -270 -31 -126 -12 -322 -32 -435
-46 -379 -45 -393 -47 -422 -35 -16 6 -28 15 -28 20 0 18 221 262 245 271 12
5 216 25 451 45 236 20 467 40 514 44 152 14 159 14 171 -13z m-2537 -2761 c3
-9 -14 -38 -43 -72 -74 -88 -102 -111 -161 -131 -31 -11 -363 -135 -738 -277
-376 -141 -690 -254 -699 -251 -28 11 -5 55 89 162 110 127 144 148 343 211
83 26 371 121 640 210 270 88 506 162 526 162 24 1 39 -4 43 -14z m1465 -519
c17 -21 34 -121 27 -160 -4 -23 -14 -37 -27 -41 -32 -10 -8 -29 85 -68 150
-63 242 -81 411 -81 180 -1 307 22 514 90 162 53 236 91 236 119 0 15 -9 21
-39 26 -54 9 -67 34 -44 84 27 60 103 32 202 -75 82 -89 100 -129 101 -220 0
-93 -26 -151 -101 -227 -98 -99 -225 -162 -416 -208 -278 -66 -574 -54 -834
35 -256 87 -423 265 -400 427 13 98 118 242 213 292 46 24 57 25 72 7z m-153
-642 c108 -67 138 -82 226 -113 193 -67 473 -96 688 -72 145 17 312 62 430
116 133 62 138 59 202 -90 53 -125 91 -249 116 -380 24 -129 23 -448 -1 -565
-25 -116 -71 -250 -113 -331 -74 -140 -202 -245 -289 -237 -62 5 -65 24 -18
125 23 48 44 108 47 133 l6 45 -13 -40 c-84 -250 -319 -416 -572 -403 -150 8
-173 41 -107 155 49 85 74 161 74 223 0 78 -16 84 -23 8 -11 -127 -119 -286
-241 -354 -45 -25 -64 -29 -128 -29 -64 0 -83 4 -127 29 -67 37 -163 136 -197
205 -34 67 -62 192 -76 345 -13 141 -31 230 -72 344 l-30 83 -19 -31 c-36 -58
-114 -66 -212 -21 -72 32 -97 60 -128 139 -25 65 -29 192 -9 277 32 141 108
274 212 369 85 79 144 105 244 105 64 1 76 -2 130 -35z m-2137 -733 c20 -11
54 -38 74 -60 64 -70 62 -138 -7 -344 -56 -171 -127 -318 -215 -448 -131 -197
-257 -321 -389 -386 -50 -25 -68 -28 -153 -28 -93 0 -100 2 -175 40 -109 55
-108 64 4 152 101 80 191 181 267 298 92 141 145 263 210 484 20 68 43 137 51
154 24 44 100 116 147 137 55 26 137 26 186 1z m-518 -129 c47 -19 50 -55 13
-168 -58 -180 -194 -418 -310 -543 -115 -124 -225 -164 -269 -97 -15 23 -14
28 11 78 76 152 379 716 393 732 32 37 66 37 162 -2z m1051 -222 c318 -61 370
-75 399 -106 22 -24 22 -25 11 -182 -6 -86 -23 -218 -37 -292 -14 -74 -24
-141 -23 -150 6 -25 109 258 135 370 43 182 55 214 85 228 35 16 95 2 125 -30
31 -33 36 -83 24 -202 -16 -147 -76 -424 -98 -455 -11 -16 -68 -50 -142 -87
-131 -64 -166 -93 -155 -128 3 -12 47 -62 99 -111 85 -83 94 -95 105 -146 11
-50 10 -63 -15 -154 -135 -498 -380 -1055 -633 -1440 -145 -220 -370 -468
-510 -564 -149 -101 -296 -151 -355 -120 -52 28 -177 150 -177 173 0 30 35 61
109 96 195 92 374 246 561 480 321 403 579 914 676 1340 13 58 24 110 24 115
0 6 -27 -57 -59 -140 -165 -423 -364 -803 -565 -1073 -94 -126 -277 -317 -396
-412 -88 -70 -314 -222 -389 -261 -40 -20 -45 -21 -75 -7 -68 33 -224 311
-297 528 -63 190 -82 327 -76 560 4 151 9 213 25 276 62 244 164 439 313 598
92 98 171 160 305 239 127 76 215 153 312 275 172 216 298 460 357 695 36 139
35 137 55 137 11 0 138 -23 282 -50z m-5272 -441 c445 -40 869 -235 1183 -542
84 -82 162 -187 257 -344 71 -117 166 -221 360 -392 193 -171 443 -316 630
-366 169 -46 198 -55 210 -70 7 -8 17 -56 23 -105 17 -158 -3 -176 -211 -191
-75 -5 -186 -15 -247 -22 l-110 -13 90 -21 c136 -33 247 -45 345 -37 81 6 89
5 109 -15 17 -17 21 -33 21 -86 0 -85 -18 -121 -68 -134 -20 -5 -116 -17 -212
-27 -267 -26 -548 -6 -601 42 -21 19 -24 60 -9 116 6 20 11 63 13 96 2 52 -1
64 -22 86 -42 45 -72 36 -206 -59 -65 -47 -130 -88 -143 -92 -58 -14 -214 94
-547 382 -701 604 -946 790 -1227 929 -231 115 -373 151 -670 168 -233 13
-363 5 -520 -34 -88 -21 -91 -21 -104 -3 -25 34 -15 61 51 138 112 131 328
304 409 327 168 47 794 -91 1109 -244 255 -123 365 -214 877 -721 217 -215
431 -419 474 -454 67 -53 236 -151 236 -136 0 2 -51 42 -112 88 -175 131 -268
217 -486 449 -235 252 -567 578 -702 691 -215 180 -451 309 -733 402 -92 30
-173 55 -180 55 -20 0 -50 37 -44 54 9 24 51 46 93 50 22 1 56 8 75 15 87 29
386 39 589 20z m1884 -212 c9 -7 30 -50 46 -97 17 -46 45 -108 62 -138 78
-129 245 -273 403 -348 185 -88 307 -115 529 -120 199 -3 197 -3 204 -130 8
-160 -38 -285 -147 -395 -73 -75 -106 -89 -206 -89 -79 0 -146 18 -281 75
-289 123 -551 314 -754 550 -169 197 -220 288 -220 388 1 94 61 207 140 262
70 48 185 70 224 42z m-290 -2109 c23 -37 -16 -82 -165 -188 -175 -124 -198
-132 -234 -77 -20 32 -7 63 43 98 267 186 326 214 356 167z"/>
<path d="M7640 8735 c-279 -77 -484 -351 -522 -699 -16 -153 4 -373 63 -687
l20 -107 -51 -67 c-28 -37 -49 -69 -47 -72 3 -2 31 13 63 33 361 232 1028 256
1439 52 44 -22 86 -45 93 -50 27 -23 20 1 -13 45 -32 41 -123 124 -162 145
-13 8 -13 20 1 109 37 234 30 468 -20 675 -71 294 -257 517 -506 606 -92 33
-269 41 -358 17z m255 -160 c313 -80 485 -376 485 -836 0 -127 -12 -277 -25
-316 -3 -8 -27 -4 -82 13 -81 26 -240 54 -309 54 l-41 0 -12 193 c-7 105 -15
208 -18 228 l-5 37 -102 21 c-55 11 -148 28 -206 37 -58 9 -108 20 -112 23 -5
4 71 36 167 71 198 73 182 55 164 187 -14 101 -39 172 -83 234 -20 27 -36 51
-36 53 0 18 145 19 215 1z"/>
<path d="M5595 8560 c-204 -41 -403 -195 -506 -392 -64 -124 -91 -245 -92
-408 0 -227 47 -401 187 -680 l72 -145 -32 -48 c-18 -26 -42 -71 -52 -100 -23
-61 -38 -147 -26 -146 5 0 31 28 59 61 92 113 238 214 410 284 93 37 280 89
364 100 l51 7 -6 -59 c-13 -125 37 -257 131 -342 31 -29 61 -52 66 -52 5 0 -4
26 -20 58 -42 82 -54 140 -49 236 7 144 81 252 217 319 59 29 74 32 151 31
144 -2 263 -62 333 -168 l39 -61 -5 61 c-3 33 -15 80 -27 104 -49 96 -170 183
-292 210 l-57 13 -6 66 c-29 320 -72 504 -155 671 -130 259 -339 392 -614 389
-56 -1 -119 -5 -141 -9z m270 -165 c292 -76 432 -342 479 -911 l5 -62 -62 -30
c-78 -39 -138 -90 -182 -155 l-34 -50 -11 29 c-7 16 -41 117 -76 224 -35 107
-71 214 -80 238 l-16 42 -78 0 c-43 0 -142 -7 -221 -15 -78 -8 -144 -13 -146
-11 -2 2 64 51 147 110 82 58 150 113 150 120 0 21 -54 148 -85 201 -50 86
-134 153 -214 170 l-33 7 43 29 c39 25 123 59 184 72 47 11 175 6 230 -8z"/>
<path d="M7650 6568 c0 -72 28 -142 78 -200 l31 -35 -102 -61 c-290 -174 -569
-260 -879 -269 -256 -8 -449 36 -761 177 -76 34 -141 60 -143 57 -6 -5 125
-122 196 -174 87 -64 195 -124 284 -157 45 -17 83 -34 85 -39 1 -4 -3 -39 -9
-77 -17 -100 -43 -134 -151 -193 l-34 -19 30 -24 c46 -37 201 -112 280 -134
267 -76 603 -32 844 110 266 156 404 398 388 683 l-5 98 31 -21 c78 -52 170
-78 228 -65 32 7 31 8 -57 53 -120 63 -236 176 -285 279 -19 40 -37 72 -41 72
-5 1 -8 -27 -8 -61z"/>
</g>
</svg>
